<?xml version="1.0" standalone="no"?>
<!DOCTYPE svg PUBLIC "-//W3C//DTD SVG 20010904//EN"
 "http://www.w3.org/TR/2001/REC-SVG-20010904/DTD/svg10.dtd">
<svg version="1.0" xmlns="http://www.w3.org/2000/svg"
 width="29.000000pt" height="25.000000pt" viewBox="0 0 29.000000 25.000000"
 preserveAspectRatio="xMidYMid meet">
<metadata>
Created by potrace 1.16, written by Peter Selinger 2001-2019
</metadata>
<g transform="translate(0.000000,25.000000) scale(0.100000,-0.100000)"
fill="#000000" stroke="none">
<path d="M60 233 c0 -6 -11 -25 -25 -41 -26 -31 -24 -42 6 -42 23 0 33 -36 26
-96 -3 -30 -1 -44 7 -44 18 0 36 22 36 42 0 14 8 18 39 18 42 0 65 -18 55 -44
-4 -11 -1 -16 14 -16 29 0 45 24 37 59 -4 21 -1 40 11 60 9 16 14 36 11 45 -6
15 -9 14 -27 -4 -14 -14 -33 -20 -66 -20 -63 0 -86 14 -78 47 6 22 4 25 -9 20
-10 -4 -20 1 -26 11 -6 9 -11 12 -11 5z m30 -28 c9 5 10 2 6 -12 -4 -14 4 -28
30 -51 39 -35 61 -40 70 -17 4 8 13 15 22 15 8 0 24 7 34 17 26 23 25 -6 -2
-35 -17 -18 -18 -25 -9 -46 14 -29 6 -56 -15 -56 -9 0 -13 6 -10 13 9 24 -31
49 -72 45 -31 -2 -39 -8 -44 -27 -10 -45 -25 -33 -22 18 4 57 -10 91 -39 91
-20 0 -20 1 3 28 13 16 26 25 29 19 4 -5 12 -6 19 -2z"/>
</g>
</svg>
